<svg t="1606184395567" class="icon" viewBox="0 0 1024 1024" version="1.1" xmlns="http://www.w3.org/2000/svg" p-id="4469" width="128" height="128"><path d="M176.872727 900.654545c-65.163636 0-116.363636-51.2-116.363636-116.363636s51.2-116.363636 116.363636-116.363636 116.363636 51.2 116.363637 116.363636-51.2 116.363636-116.363637 116.363636zM828.509091 900.654545c-65.163636 0-116.363636-51.2-116.363636-116.363636s51.2-116.363636 116.363636-116.363636 116.363636 51.2 116.363636 116.363636-51.2 116.363636-116.363636 116.363636z" p-id="4470"></path><path d="M1003.054545 558.545455H698.181818v235.054545h258.327273c25.6 0 46.545455-20.945455 46.545454-46.545455V558.545455z" p-id="4471"></path><path d="M842.472727 374.690909H698.181818v48.872727h130.327273c13.963636 0 25.6 6.981818 34.909091 18.618182l83.781818 118.690909h55.854545l-128-167.563636c-9.309091-11.636364-20.945455-18.618182-32.581818-18.618182zM698.181818 793.6H46.545455c-25.6 0-46.545455-20.945455-46.545455-46.545455v-558.545454c0-51.2 41.890909-93.090909 93.090909-93.090909h512c51.2 0 93.090909 41.890909 93.090909 93.090909v605.090909z" p-id="4472"></path></svg>
