<svg t="1606182188312" class="icon" viewBox="0 0 1328 1024" version="1.1" xmlns="http://www.w3.org/2000/svg" p-id="3634" width="128" height="128"><path d="M923.2944 766.9616c-51.32-21.6192-108.1936-46.7504-159.4064-67.776-14.5936-3.9616-29.2064-7.9424-43.832-11.9376-17.424-12.0048-34.4992-51.8928-43.8304-71.7424-9.2944-1.3264-18.5888-2.6256-27.9136-3.976 1.4384-30.6752 20.4624-32.312 27.9136-55.7504 6.568-20.6928 0.68-47.5744 11.1184-66.7184 7.2304-13.2864 23.5808-13.3744 31.744-24.7744 7.4304-10.3504 12.3248-28.3936 14.6176-41.0496 4.2192-23.1264 7.8944-54.832-3.112-77.7936-6.3248-13.1888-10.2928-14.4576-12.0432-30.4576-2.1376-19.4064 5.7184-82.712 6.056-96.4112 0.8064-35.5072-0.088-67.632-8.656-102.2256 0 0-10.456-31.312-26.8-40.7696l-32.5936-5.624-20.1568-18.6816C555.168 1.3232 468.0992 36.368 421.5184 55.2544c-67.2064 21.8384-109.6816 116.8448-80.0368 257.4128 5.0816 23.9936-13.1312 34.7184-11.944 47.832 2.5808 28.6432 3.1312 97.5248 30.2064 114.4624 2.512 1.6 21.7248 6.3808 21.6128 5.0816 2.656 27.88 5.2992 55.8 7.9424 83.6864 6.7632 18.5376 22.976 20.5568 27.7072 46.744l-20.7568 5.032c-9.3184 19.856-26.3936 59.7424-43.856 71.7424-14.5936 3.9952-29.2064 7.976-43.8304 11.9376-51.176 21.0256-108.088 46.1568-159.376 67.776-46.7248 19.7248-102.688 26.7184-119.5744 75.7184 0 33.2624-3.1072 111.8064-2.2688 155.3936h1017.7872c0.8368-43.5872-2.2752-122.1312-2.2752-155.3936-16.9056-48.9936-72.8368-55.9936-119.5616-75.7184z m373.1744 49.4496c-12.0192-34.912-51.9056-39.9376-85.1936-53.9872-36.5936-15.4-77.1248-33.3184-113.6384-48.288-10.4-2.8128-20.824-5.6816-31.2304-8.512-12.4256-8.5504-24.6128-37-31.2688-51.1248-6.5936-0.9504-13.2368-1.888-19.888-2.8384 1.032-21.8864 14.5632-23.0496 19.888-39.7552 4.6992-14.7568 0.488-33.8816 7.944-47.5632 5.1312-9.456 16.8192-9.5056 22.6128-17.6496 5.3056-7.3696 8.7936-20.2256 10.4368-29.256 3.0064-16.5136 5.5936-39.0752-2.2128-55.4448-4.512-9.4064-7.3552-10.3248-8.5936-21.7248-1.5376-13.8432 4.056-58.968 4.2944-68.6928 0.568-25.3504-0.0256-48.2448-6.1568-72.8816 0 0-7.4256-22.3504-19.1056-29.0752l-23.2384-3.9744-14.3808-13.32c-57.8752-35.6128-119.9504-10.6496-153.1312 2.8128-47.9184 15.5376-78.2 83.3072-57.0384 183.4816 3.5952 17.1056-9.3808 24.7504-8.5248 34.0624 1.8448 20.4368 2.2192 69.5056 21.5136 81.6192 1.7872 1.1312 15.48 4.544 15.4 3.6176 1.8992 19.8624 3.7872 39.776 5.68 59.6384 4.8064 13.2192 16.376 14.6752 19.7264 33.3248l-14.7568 3.6192c-4.7504 10.0752-12.3184 27.3184-20.7568 39.5312a11165.8336 11165.8336 0 0 1 55.2944 23.6432c21.3248 9.1872 42.4816 18.2688 62.8 26.8 9.6752 4.112 19.8128 7.632 30.5312 11.3632 40.1056 13.88 85.5872 29.6368 102.5744 78.8688l1.3312 3.8688v4.1056c0 12.8128 0.4816 33.2368 1.0064 54.8816 0.2384 9.6496 0.4816 19.6496 0.6944 29.6176h229.0128c0.6176-31.056-1.6256-87.0688-1.6256-110.768z m0 0" p-id="3635"></path></svg>
