<svg t="1606181691482" class="icon" viewBox="0 0 1024 1024" version="1.1" xmlns="http://www.w3.org/2000/svg" p-id="2827" width="128" height="128"><path d="M134.7584 604.16v-53.8624h389.12A295.5264 295.5264 0 0 1 486.4 430.08H134.7584v-53.4528h351.6416a294.912 294.912 0 0 1 37.4784-119.6032h-389.12V203.1616h428.6464a293.6832 293.6832 0 0 1 217.088-95.8464V20.48H0v901.12l129.8432-114.0736L260.096 921.6l129.024-114.0736L520.3968 921.6l130.2528-114.0736L780.4928 921.6V700.2112a293.6832 293.6832 0 0 1-217.088-96.0512z" p-id="2828"></path><path d="M780.4928 159.9488A243.9168 243.9168 0 1 0 1024 404.0704 243.712 243.712 0 0 0 780.4928 159.9488z m102.4 345.7024l-129.2288-87.6544v-204.8h53.8624V389.12l106.0864 71.4752z" p-id="2829"></path></svg>
