<svg t="1605768180128" class="icon" viewBox="0 0 1024 1024" version="1.1" xmlns="http://www.w3.org/2000/svg" p-id="9228" width="128" height="128"><path d="M814.3 902v0.6c-0.2 0.1-0.5 0.1-0.7 0.2 0.2-0.3 0.5-0.5 0.7-0.8zM540.3 521.4v108c0.3-0.2 0.7-0.3 1-0.5v-105h273v-2.5h-274z" p-id="9229"></path><path d="M744.3 62H121.6L81.8 173.4h100.1v717.7c0 38.6 31.3 70 70 70H447c-2.8-2.3-8.4-7.8-13.4-17.3-2.5-4.7-4.9-10.4-6.7-17.2H304.6l15.5-43.5h103.2v-131c0-27.9 16.7-40.5 24-45.9l83.2-70.9c3-2.2 6.2-4.2 9.7-5.9v-108h274V132c0.1-38.7-31.2-70-69.9-70z m-562.4 77h-51.2l15.2-42.5h36V139z m222.5 534.5H296.2V639h108.2v34.5z m92.1-121.9H296.2v-34.4h200.3v34.4zM700 445H296.2v-34.4H700V445z m0-129.6H296.2V281H700v34.4z" p-id="9230"></path><path d="M813.6 943.5l0.1 0.3h-0.2c0.1-0.1 0.1-0.2 0.1-0.3zM814.3 902v0.6c-0.2 0.1-0.5 0.1-0.7 0.2 0.2-0.3 0.5-0.5 0.7-0.8z" p-id="9231"></path><path d="M813.6 943.5c0 0.1 0 0.2-0.1 0.3h0.2l-0.1-0.3z" p-id="9232"></path><path d="M813.6 902.8c0.2-0.1 0.5-0.1 0.7-0.2v-0.6c-0.2 0.3-0.5 0.5-0.7 0.8z" p-id="9233"></path><path d="M813.6 902.8c0.2-0.1 0.5-0.1 0.7-0.2v-0.6c-0.2 0.3-0.5 0.5-0.7 0.8z" p-id="9234"></path><path d="M813.6 943.5c0 0.1 0 0.2-0.1 0.3h0.2l-0.1-0.3z m0-40.7c0.2-0.1 0.5-0.1 0.7-0.2v-0.6c-0.2 0.3-0.5 0.5-0.7 0.8zM814.3 521.4v2.5h-273v105c-0.4 0.2-0.7 0.3-1 0.5v-108h274z" p-id="9235"></path><path d="M813.6 943.5c0 0.1 0 0.2-0.1 0.3h0.2l-0.1-0.3zM575.8 558.3v98.3h-6.3c-5.6 0-12.6 2.1-18.3 6.3l-10.9 9.3-70.5 60.2c-8.4 6.3-11.9 9.8-11.9 19.7v139.7c-0.7 17.2 2.5 28.3 5.7 34.8 2.8 5.7 5.5 8 5.5 8h34.6c-0.4-2.4-0.6-5.1-0.7-8v-0.4c0-16.2 5.4-31.1 14.5-43.1 5.2-6.8 11.5-12.7 18.8-17.2 1.3-0.8 2.6-1.6 4-2.3 9.8-5.3 21.1-8.3 33-8.3 13.1 0 26 3.8 37 10.6a71.017 71.017 0 0 1 18.9 17.2c9.3 12.2 14.3 27.2 14.3 43.1v0.4c0 2.9-0.3 5.6-0.7 8h128.7c-0.4-2.4-0.6-5.1-0.7-8v-0.4c0-6.4 0.8-12.6 2.4-18.5 2.4-9.1 6.6-17.4 12.1-24.6 3.2-4.3 6.9-8.1 11-11.5 2.5-2.1 5.1-4 7.8-5.7 3.2-2 6.6-3.8 10.2-5.3 6-2.5 12.3-4.2 19-4.9 2.6-0.3 5.2-0.4 7.8-0.4 11.9 0 23.7 3.1 34.1 8.9 1 0.6 2 1.1 3 1.7 4.4 2.7 8.5 5.9 12.2 9.5l0.4 0.4c4.8 4.8 8.8 10.2 12 16 5.6 10.3 8.6 22.1 8.6 34.3 0 3.1-0.3 5.9-0.7 8.4h31.5V558.3H575.8z m0 233.1h-98.3v-26c0-11.2 5.6-13.3 12.6-19.6l50.2-43.1 20.1-17.2c4.9-3.5 9.8-6.3 15.4-6.3v112.2z" p-id="9236"></path><path d="M813.6 943.5c0 0.1 0 0.2-0.1 0.3h0.2l-0.1-0.3z m0-40.7c0.2-0.1 0.5-0.1 0.7-0.2v-0.6c-0.2 0.3-0.5 0.5-0.7 0.8z" p-id="9237"></path><path d="M813.6 943.5c0 0.1 0 0.2-0.1 0.3h0.2l-0.1-0.3z m0-40.7c0.2-0.1 0.5-0.1 0.7-0.2v-0.6c-0.2 0.3-0.5 0.5-0.7 0.8z" p-id="9238"></path><path d="M875.7 916.4c-1.6-6-4.7-11.6-9.3-16.2-0.8-0.8-1.6-1.5-2.4-2.2-5.4-4.5-12.5-7.6-20-8.2-0.9-0.1-1.9-0.1-2.8-0.1-10.6 0-20.2 4.7-26.8 12.3v0.6c-0.2 0.1-0.5 0.1-0.7 0.2-5.2 6.3-8.3 14.4-8.3 23.4v0.7c0.1 2.6 0.7 5.1 1.4 7.7 0.7 3.2 1.9 6.3 3.5 9.2 0.6 1.2 1.4 2.3 2.1 3.3 1 1.4 2.1 2.8 3.3 4 4.6 4.8 10.6 8.3 17.3 9.9 2.6 0.6 5.3 0.9 8.1 0.9s5.5-0.3 8.1-0.9c6.4-1.5 12.1-4.8 16.6-9.2 4.8-4.7 8.2-10.6 9.7-17.2 0.5-1.9 0.9-3.7 1.2-5.6 0.1-0.9 0.2-1.9 0.2-2.8 0-3.4-0.4-6.6-1.2-9.8z m-62.2 27.4c0-0.1 0-0.2 0.1-0.3l0.1 0.3h-0.2z" p-id="9239"></path><path d="M609 926.2v0.4c0 1.1-0.1 2.2-0.3 3.3-0.3 1.6-0.7 3.1-1 4.7-0.7 3.2-1.9 6.3-3.5 9.2-1.7 3-3.7 5.7-6.2 8.1-4.5 4.4-10.2 7.7-16.6 9.2-2.5 0.6-5.2 0.9-7.9 0.9h-0.3c-2.7 0-5.4-0.3-8-0.9-6.7-1.6-12.7-5.1-17.3-9.9-2.1-2.2-4-4.7-5.5-7.4-0.8-1.5-1.5-3-2.1-4.6-0.6-1.5-1-3-1.4-4.6-0.6-2.3-1.2-4.7-1.4-7.1 0-0.3-0.1-0.6-0.1-1v-0.4c0-5.1 1-9.9 2.8-14.2 5.4-13.1 18.2-22.3 33-22.3 9.8 0 18.9 4.2 25.3 10.5 7 7.2 10.5 16.3 10.5 26.1z" p-id="9240"></path></svg>
